HIERARCHY
ROOT Hips
{
	OFFSET 0.000000 0.000000 0.000000
	CHANNELS 6 Xposition Yposition Zposition Xrotation Yrotation Zrotation
	JOINT Spine
	{
		OFFSET 0.000000 0.053497 0.080245
		CHANNELS 3 Xrotation Yrotation Zrotation
		JOINT Spine1
		{
			OFFSET 0.000000 0.018579 0.105368
			CHANNELS 3 Xrotation Yrotation Zrotation
			JOINT Spine2
			{
				OFFSET 0.000000 0.009325 0.106586
				CHANNELS 3 Xrotation Yrotation Zrotation
				JOINT Spine3
				{
					OFFSET 0.000000 0.000000 0.106993
					CHANNELS 3 Xrotation Yrotation Zrotation
					JOINT Neck
					{
						OFFSET 0.000000 -0.040122 0.280858
						CHANNELS 3 Xrotation Yrotation Zrotation
						JOINT Head
						{
							OFFSET 0.000000 -0.025546 0.144881
							CHANNELS 3 Xrotation Yrotation Zrotation
							End Site
							{
								OFFSET 0.000000 0.000000 0.000000
							}
						}
					}
					JOINT RightShoulder
					{
						OFFSET -0.032541 -0.054234 0.175720
						CHANNELS 3 Xrotation Yrotation Zrotation
						JOINT RightArm
						{
							OFFSET -0.161619 0.000000 0.000000
							CHANNELS 3 Xrotation Yrotation Zrotation
							JOINT RightForeArm
							{
								OFFSET -0.257104 0.000000 0.000000
								CHANNELS 3 Xrotation Yrotation Zrotation
								JOINT RightHand
								{
									OFFSET -0.273485 0.000000 0.000000
									CHANNELS 3 Xrotation Yrotation Zrotation
									JOINT RightHandEnd
									{
										OFFSET -0.070844 0.000000 0.000000
										CHANNELS 3 Xrotation Yrotation Zrotation
										End Site
										{
											OFFSET 0.000000 0.000000 0.000000
										}
									}
									JOINT RightHandThumb1
									{
										OFFSET -0.028338 -0.047230 -0.018892
										CHANNELS 3 Xrotation Yrotation Zrotation
										End Site
										{
											OFFSET 0.000000 0.000000 0.000000
										}
									}
								}
							}
						}
					}
					JOINT LeftShoulder
					{
						OFFSET 0.032541 -0.054234 0.175720
						CHANNELS 3 Xrotation Yrotation Zrotation
						JOINT LeftArm
						{
							OFFSET 0.161619 0.000000 0.000000
							CHANNELS 3 Xrotation Yrotation Zrotation
							JOINT LeftForeArm
							{
								OFFSET 0.257104 0.000000 0.000000
								CHANNELS 3 Xrotation Yrotation Zrotation
								JOINT LeftHand
								{
									OFFSET 0.273485 0.000000 0.000000
									CHANNELS 3 Xrotation Yrotation Zrotation
									JOINT LeftHandEnd
									{
										OFFSET 0.070844 0.000000 0.000000
										CHANNELS 3 Xrotation Yrotation Zrotation
										End Site
										{
											OFFSET 0.000000 0.000000 0.000000
										}
									}
									JOINT LeftHandThumb1
									{
										OFFSET 0.028338 -0.047230 -0.018892
										CHANNELS 3 Xrotation Yrotation Zrotation
										End Site
										{
											OFFSET 0.000000 0.000000 0.000000
										}
									}
								}
							}
						}
					}
				}
			}
		}
	}
	JOINT RightUpLeg
	{
		OFFSET -0.096537 0.000000 -0.028202
		CHANNELS 3 Xrotation Yrotation Zrotation
		JOINT RightLeg
		{
			OFFSET 0.000000 0.000000 -0.431842
			CHANNELS 3 Xrotation Yrotation Zrotation
			JOINT RightFoot
			{
				OFFSET 0.000000 0.000000 -0.456398
				CHANNELS 3 Xrotation Yrotation Zrotation
				JOINT RightToeBase
				{
					OFFSET 0.000000 -0.128905 -0.046918
					CHANNELS 3 Xrotation Yrotation Zrotation
					End Site
					{
						OFFSET 0.000000 0.000000 0.000000
					}
				}
			}
		}
	}
	JOINT LeftUpLeg
	{
		OFFSET 0.096537 0.000000 -0.028202
		CHANNELS 3 Xrotation Yrotation Zrotation
		JOINT LeftLeg
		{
			OFFSET 0.000000 0.000000 -0.431842
			CHANNELS 3 Xrotation Yrotation Zrotation
			JOINT LeftFoot
			{
				OFFSET 0.000000 0.000000 -0.456398
				CHANNELS 3 Xrotation Yrotation Zrotation
				JOINT LeftToeBase
				{
					OFFSET 0.000000 -0.128905 -0.046918
					CHANNELS 3 Xrotation Yrotation Zrotation
					End Site
					{
						OFFSET 0.000000 0.000000 0.000000
					}
				}
			}
		}
	}
}
MOTION
Frames: 4
Frame Time: 0.033333
0.201572 0.702582 0.935045 -3.905300 -1.260700 1.768400 2.340400 3.266900 -0.906100 1.004300 0.980500 -0.065800 5.712800 -2.515600 -2.110000 1.592600 -0.491300 0.368500 -1.112300 -1.679300 -3.734100 -5.512800 0.184700 -2.536500 3.703600 -8.114600 10.044000 16.708600 -54.064600 14.907500 0.000000 0.000100 98.558600 -25.529900 18.214900 -2.757200 0.000000 0.000000 0.000000 0.000000 0.000000 0.000000 3.677400 8.781800 -14.636400 5.708300 55.498700 -7.927200 -0.000100 -0.000100 -93.434000 -26.256200 -13.365700 -4.155900 0.000000 0.000000 0.000000 0.000000 0.000000 0.000000 -20.386700 2.205800 -9.015900 27.205800 0.000000 0.000000 -2.244400 5.083900 -11.728500 -0.320900 0.000000 0.000000 0.318300 -3.399900 0.248000 42.366200 0.000000 0.000000 -10.318100 28.105500 13.978600 -19.069000 0.000000 0.000000 
0.207891 0.717233 0.933333 -4.174600 -1.366500 2.167200 2.442500 3.618700 -0.926200 1.060200 0.922100 -0.070100 5.746300 -2.457500 -2.219100 1.591000 -0.441400 0.281200 -1.119800 -1.552900 -3.681200 -5.305600 0.194100 -2.552800 3.661900 -8.158400 10.104500 16.856500 -54.021900 14.758100 0.000000 0.000100 98.465500 -26.137800 18.913900 -1.872800 0.000000 0.000000 0.000000 0.000000 0.000000 0.000000 3.516600 8.975400 -14.732800 6.217800 55.085400 -8.557600 -0.000100 -0.000100 -93.167600 -26.327900 -13.530900 -4.344600 0.000000 0.000000 0.000000 0.000000 0.000000 0.000000 -20.829100 2.917400 -9.396100 26.873900 0.000000 0.000000 -1.244700 4.459600 -11.484700 -0.075900 0.000000 0.000000 2.042200 -2.755800 1.090100 39.173600 0.000000 0.000000 -16.590600 28.637000 17.148400 -13.200500 0.000000 0.000000 
0.214787 0.732462 0.931563 -4.465700 -1.492300 2.494500 2.548900 3.992600 -0.928600 1.112900 0.872300 -0.073200 5.788800 -2.488200 -2.329000 1.595600 -0.417800 0.229700 -1.102400 -1.409000 -3.575500 -5.076600 0.269700 -2.540500 3.589000 -8.243300 10.102300 17.142600 -53.811600 14.738800 0.000000 0.000100 98.340100 -26.538700 19.749200 -0.794900 0.000000 0.000000 0.000000 0.000000 0.000000 0.000000 3.394800 9.196300 -14.727000 6.486800 55.017700 -9.020400 -0.000100 -0.000100 -93.055900 -26.099400 -13.598300 -4.548600 0.000000 0.000000 0.000000 0.000000 0.000000 0.000000 -21.189600 3.595000 -9.576600 26.327400 0.000000 0.000000 -0.057600 3.910800 -11.372900 0.127800 0.000000 0.000000 3.599500 -1.864600 1.226500 35.926100 0.000000 0.000000 -22.068900 27.519000 19.541100 -7.586400 0.000000 0.000000 
0.222410 0.748406 0.929729 -4.796200 -1.854400 2.762800 2.711200 4.538100 -0.953100 1.179300 0.877500 -0.076700 5.830900 -2.542200 -2.375800 1.606400 -0.426000 0.228800 -1.140300 -1.312700 -3.492900 -4.851500 0.370200 -2.501900 3.534100 -8.377400 10.005400 17.066800 -53.589700 14.498000 0.000000 0.000100 98.272300 -26.756500 20.228500 -0.092400 0.000000 0.000000 0.000000 0.000000 0.000000 0.000000 3.289500 9.407200 -14.728600 6.644100 55.124900 -9.364600 -0.000100 -0.000100 -93.120500 -25.743400 -13.634900 -4.693300 0.000000 0.000000 0.000000 0.000000 0.000000 0.000000 -21.528700 4.529200 -9.698100 25.730200 0.000000 0.000000 1.167500 3.504000 -11.163300 0.045300 0.000000 0.000000 4.871000 -0.536400 0.442400 32.885700 0.000000 0.000000 -26.163100 25.668400 21.608900 -2.635300 0.000000 0.000000 
